<?xml version="1.0"?>
<svg version="1.1" xmlns="http://www.w3.org/2000/svg" xmlns:xlink="http://www.w3.org/1999/xlink" width="25" height="24">
    <desc iVinci="yes" version="4.5" gridStep="1" showGrid="no" snapToGrid="no" codePlatform="0"/>
    <g id="Layer1" opacity="1">
        <g id="Shape1">
            <desc shapeID="1" type="0" basicInfo-basicType="0" basicInfo-roundedRectRadius="12" basicInfo-polygonSides="6" basicInfo-starPoints="5" bounding="rect(-149,-149,298,298)" text="" font-familyName="" font-pixelSize="20" font-bold="0" font-underline="0" font-alignment="1" strokeStyle="0" markerStart="0" markerEnd="0" shadowEnabled="0" shadowOffsetX="0" shadowOffsetY="2" shadowBlur="4" shadowOpacity="160" blurEnabled="0" blurRadius="4" transform="matrix(0.0546933,-0.0219687,0.0219687,0.0546933,8.59886,15.3911)" pers-center="0,0" pers-size="0,0" pers-start="0,0" pers-end="0,0" locked="0" mesh="" flag=""/>
            <path id="shapePath1" d="M17.1039,13.0035 L16.3188,11.0487 L14.2831,11.1098 C13.8889,10.5751 13.4552,10.0948 12.9408,9.69976 L12.9576,9.69029 L13.0956,7.59264 L11.1623,6.76417 L9.74169,8.30653 L9.74096,8.30967 C9.0999,8.21139 8.4592,8.24296 7.80035,8.32833 L6.4296,6.79829 L4.47492,7.58345 L4.54303,9.63685 C4.00813,10.0309 3.53164,10.4734 3.13672,10.988 L3.12864,10.9755 L1.03201,10.8395 L0.203996,12.774 L1.74647,14.1948 L1.75006,14.1959 C1.65157,14.837 1.57393,15.522 1.65934,16.1807 L0.020196,17.5953 L0.805378,19.5502 L2.96785,19.4382 C3.36193,19.9732 3.85901,20.4276 4.37375,20.8226 L4.38836,20.8195 L4.26615,22.9105 L6.20747,23.7361 L7.63186,22.1923 L7.63441,22.1883 C8.27555,22.2863 8.95416,22.3459 9.61315,22.2606 L11.0215,23.882 L12.9763,23.0969 L12.8715,20.9519 C13.4063,20.5576 13.8642,20.0695 14.2592,19.5551 L14.2581,19.5445 L16.3503,19.6691 L17.1759,17.7288 L15.6321,16.3047 L15.6283,16.3024 C15.7265,15.6613 15.677,15.0267 15.5918,14.3679 L17.1039,13.0035 M9.99744,18.5064 C8.1982,19.2291 6.15387,18.3568 5.43104,16.5571 C4.70836,14.758 5.58103,12.7133 7.38026,11.9906 C9.17973,11.2678 11.2241,12.1408 11.9467,13.94 C12.6696,15.7396 11.7969,17.7836 9.99744,18.5064 Z" style="stroke:none;fill-rule:evenodd;fill:#333333;fill-opacity:0.705882;"/>
        </g>
        <g id="Shape2">
            <desc shapeID="2" type="0" basicInfo-basicType="0" basicInfo-roundedRectRadius="12" basicInfo-polygonSides="6" basicInfo-starPoints="5" bounding="rect(-149,-149.001,298.002,298.001)" text="" font-familyName="" font-pixelSize="20" font-bold="0" font-underline="0" font-alignment="1" strokeStyle="0" markerStart="0" markerEnd="0" shadowEnabled="0" shadowOffsetX="0" shadowOffsetY="2" shadowBlur="4" shadowOpacity="160" blurEnabled="0" blurRadius="4" transform="matrix(0.0299098,-0.025448,0.025448,0.0299098,18.7328,6.01298)" pers-center="0,0" pers-size="0,0" pers-start="0,0" pers-end="0,0" locked="0" mesh="" flag=""/>
            <path id="shapePath2" d="M23.6015,2.70561 L22.692,1.63661 L21.4187,2.10575 C21.0565,1.8513 20.6809,1.63955 20.2724,1.49878 L20.281,1.48926 L19.9245,0.1347 L18.5278,0.0202003 L17.9564,1.29512 L17.9566,1.29726 C17.5308,1.37078 17.1327,1.52621 16.7345,1.71952 L15.5448,1.04272 L14.4758,1.95221 L14.9532,3.23519 C14.6986,3.59727 14.4911,3.97762 14.3504,4.38631 L14.3427,4.38012 L12.9893,4.73766 L12.8753,6.135 L14.1503,6.7065 L14.1528,6.70639 C14.2262,7.13231 14.322,7.58148 14.5153,7.97962 L13.7788,9.22012 L14.6883,10.2891 L16.031,9.76101 C16.3931,10.0157 16.8033,10.1976 17.2121,10.3383 L17.2207,10.3333 L17.5857,11.6803 L18.9869,11.7913 L19.5603,10.5146 L19.5611,10.5116 C19.9869,10.4379 20.4282,10.332 20.8266,10.1388 L22.0594,10.8653 L23.1283,9.95581 L22.6085,8.6228 C22.8629,8.26053 23.049,7.85532 23.1898,7.44676 L23.1868,7.44027 L24.5351,7.07647 L24.6463,5.67596 L23.3698,5.10274 L23.3668,5.10208 C23.2933,4.67621 23.1279,4.28575 22.9347,3.88748 L23.6015,2.70561 M20.2753,7.68552 C19.2914,8.52263 17.8152,8.40386 16.978,7.41978 C16.1408,6.43584 16.2597,4.95942 17.2436,4.12225 C18.2277,3.28499 19.704,3.40417 20.5412,4.38808 C21.3785,5.3722 21.2594,6.84823 20.2753,7.68552 Z" style="stroke:none;fill-rule:evenodd;fill:#333333;fill-opacity:0.705882;"/>
        </g>
    </g>
</svg>
