<?xml version="1.0"?>
<svg version="1.1" xmlns="http://www.w3.org/2000/svg" xmlns:xlink="http://www.w3.org/1999/xlink" width="20" height="20">
    <desc iVinci="yes" version="4.5" gridStep="1" showGrid="no" snapToGrid="yes" codePlatform="0"/>
    <g id="Layer1" opacity="1">
        <g id="Shape1">
            <desc shapeID="1" type="0" basicInfo-basicType="0" basicInfo-roundedRectRadius="12" basicInfo-polygonSides="6" basicInfo-starPoints="5" bounding="rect(-22.625,-9.25,45.25,18.5)" text="" font-familyName="" font-pixelSize="20" font-bold="0" font-underline="0" font-alignment="1" strokeStyle="0" markerStart="0" markerEnd="0" shadowEnabled="0" shadowOffsetX="0" shadowOffsetY="2" shadowBlur="4" shadowOpacity="160" blurEnabled="0" blurRadius="4" transform="matrix(0.338142,0,0,0.338142,10.1893,3.17207)" pers-center="0,0" pers-size="0,0" pers-start="0,0" pers-end="0,0" locked="0" mesh="" flag=""/>
            <path id="shapePath1" d="M16.1491,2.66486 L14.8388,2.66486 C14.6518,2.66486 14.5006,2.51371 14.5006,2.32671 L14.5006,1.73497 C14.5006,0.80271 13.7425,0.0442581 12.8099,0.0442581 L7.56873,0.0442581 C6.63648,0.0442581 5.87803,0.80271 5.87803,1.73497 L5.87803,2.32671 C5.87803,2.51371 5.72654,2.66486 5.53988,2.66486 L4.22958,2.66486 C3.29598,2.66486 2.53888,3.42162 2.53888,4.35557 L2.53888,5.96174 C2.53888,6.14873 2.69036,6.29988 2.87702,6.29988 L17.5016,6.29988 C17.689,6.29988 17.8398,6.14873 17.8398,5.96174 L17.8398,4.35557 C17.8398,3.42162 17.0834,2.66486 16.1491,2.66486 M13.1481,2.32671 C13.1481,2.51371 12.9973,2.66486 12.8099,2.66486 L7.56873,2.66486 C7.38208,2.66486 7.23059,2.51371 7.23059,2.32671 L7.23059,1.73497 C7.23059,1.54831 7.38242,1.39683 7.56873,1.39683 L12.8099,1.39683 C12.9969,1.39683 13.1481,1.54831 13.1481,1.73497 L13.1481,2.32671 Z" style="stroke:none;fill-rule:nonzero;fill:#333333;fill-opacity:0.705882;"/>
        </g>
        <g id="Shape2">
            <desc shapeID="2" type="0" basicInfo-basicType="0" basicInfo-roundedRectRadius="12" basicInfo-polygonSides="6" basicInfo-starPoints="5" bounding="rect(-18.375,-19,36.75,38)" text="" font-familyName="" font-pixelSize="20" font-bold="0" font-underline="0" font-alignment="1" strokeStyle="0" markerStart="0" markerEnd="0" shadowEnabled="0" shadowOffsetX="0" shadowOffsetY="2" shadowBlur="4" shadowOpacity="160" blurEnabled="0" blurRadius="4" transform="matrix(0.338142,0,0,0.338142,10.19,13.5699)" pers-center="0,0" pers-size="0,0" pers-start="0,0" pers-end="0,0" locked="0" mesh="" flag=""/>
            <path id="shapePath2" d="M16.0652,7.14523 L4.3148,7.14523 C4.1278,7.14523 3.97665,7.29638 3.97665,7.48338 L3.97665,18.3039 C3.97665,19.2379 4.73375,19.9946 5.66736,19.9946 L14.7127,19.9946 C15.6466,19.9946 16.4034,19.2379 16.4034,18.3039 L16.4034,7.48338 C16.4034,7.29638 16.2522,7.14523 16.0652,7.14523 M7.44227,17.6276 C7.44227,18.0009 7.13963,18.3039 6.76599,18.3039 C6.39268,18.3039 6.0897,18.0009 6.0897,17.6276 L6.0897,9.25862 C6.0897,8.88531 6.39268,8.58234 6.76599,8.58234 C7.13963,8.58234 7.44227,8.88531 7.44227,9.25862 L7.44227,17.6276 M10.866,17.6276 C10.866,18.0009 10.5633,18.3039 10.1897,18.3039 C9.81636,18.3039 9.51339,18.0009 9.51339,17.6276 L9.51339,9.25862 C9.51339,8.88531 9.81636,8.58234 10.1897,8.58234 C10.5633,8.58234 10.866,8.88531 10.866,9.25862 L10.866,17.6276 M14.2893,17.6276 C14.2893,18.0009 13.9863,18.3039 13.613,18.3039 C13.2397,18.3039 12.9367,18.0009 12.9367,17.6276 L12.9367,9.25862 C12.9367,8.88531 13.2397,8.58234 13.613,8.58234 C13.9863,8.58234 14.2893,8.88531 14.2893,9.25862 L14.2893,17.6276 Z" style="stroke:none;fill-rule:nonzero;fill:#333333;fill-opacity:0.705882;"/>
        </g>
    </g>
</svg>
